<?xml version="1.0" encoding="UTF-8" standalone="no"?>
<svg
   width="512"
   height="512"
   viewBox="0 0 135.46666 135.46667"
   version="1.1"
   id="svg8"
   inkscape:version="1.1.2 (0a00cf5339, 2022-02-04)"
   sodipodi:docname="favicon.svg"
   inkscape:export-filename="/home/dmpop/Documents/airframe/favicon.png"
   inkscape:export-xdpi="96.000008"
   inkscape:export-ydpi="96.000008"
   xmlns:inkscape="http://www.inkscape.org/namespaces/inkscape"
   xmlns:sodipodi="http://sodipodi.sourceforge.net/DTD/sodipodi-0.dtd"
   xmlns="http://www.w3.org/2000/svg"
   xmlns:svg="http://www.w3.org/2000/svg"
   xmlns:rdf="http://www.w3.org/1999/02/22-rdf-syntax-ns#"
   xmlns:cc="http://creativecommons.org/ns#"
   xmlns:dc="http://purl.org/dc/elements/1.1/">
  <defs
     id="defs2" />
  <sodipodi:namedview
     id="base"
     pagecolor="#ffffff"
     bordercolor="#666666"
     borderopacity="1.0"
     inkscape:pageopacity="0.0"
     inkscape:pageshadow="2"
     inkscape:zoom="0.98994949"
     inkscape:cx="117.1777"
     inkscape:cy="328.80465"
     inkscape:document-units="mm"
     inkscape:current-layer="layer1"
     inkscape:document-rotation="0"
     showgrid="false"
     units="px"
     fit-margin-top="0"
     fit-margin-left="0"
     fit-margin-right="0"
     fit-margin-bottom="0"
     inkscape:window-width="1920"
     inkscape:window-height="1008"
     inkscape:window-x="0"
     inkscape:window-y="0"
     inkscape:window-maximized="1"
     showguides="true"
     inkscape:guide-bbox="true"
     inkscape:pagecheckerboard="0"
     width="512px" />
  <metadata
     id="metadata5">
    <rdf:RDF>
      <cc:Work
         rdf:about="">
        <dc:format>image/svg+xml</dc:format>
        <dc:type
           rdf:resource="http://purl.org/dc/dcmitype/StillImage" />
      </cc:Work>
    </rdf:RDF>
  </metadata>
  <g
     inkscape:label="Layer 1"
     inkscape:groupmode="layer"
     id="layer1"
     transform="translate(-1.7505751,-5.1344559)">
    <path
       sodipodi:type="star"
       style="fill:#00b6ff;fill-opacity:1;stroke:none"
       id="path845"
       inkscape:flatsided="false"
       sodipodi:sides="4"
       sodipodi:cx="-361.25003"
       sodipodi:cy="-25.824738"
       sodipodi:r1="540.58307"
       sodipodi:r2="427.06064"
       sodipodi:arg1="0.78539816"
       sodipodi:arg2="1.5707963"
       inkscape:rounded="0.15"
       inkscape:randomized="0"
       transform="matrix(0.15488628,0,0,0.15488628,125.43658,76.867687)"
       inkscape:transform-center-x="4.6581943"
       inkscape:transform-center-y="-4.658194"
       d="m 20.999925,356.42521 c -40.821366,40.82137 -324.519815,44.81069 -382.249945,44.81069 -57.73013,0 -341.42859,-3.98932 -382.24996,-44.81068 -40.82137,-40.82137 -44.81069,-324.519816 -44.81069,-382.249946 0,-57.730133 3.98932,-341.428594 44.81068,-382.249964 40.82137,-40.82137 324.51982,-44.81069 382.24995,-44.81069 57.73013,0 341.428593,3.98932 382.249962,44.81069 40.821367,40.82136 44.810686,324.519811 44.810686,382.249941 0,57.730133 -3.989316,341.428599 -44.810683,382.249959 z" />
    <g
       style="color:#000000;fill:none;stroke:#ffffff;stroke-width:1;stroke-opacity:1"
       id="g2163"
       transform="matrix(3.3913876,3.3913876,-3.3913876,3.3913876,75.947482,-14.988761)">
      <path
         d="m 10.5,4.5 v 4.667 a 0.6,0.6 0 0 1 -0.282,0.51 L 2.782,14.324 A 0.6,0.6 0 0 0 2.5,14.832 v 0.9 a 0.6,0.6 0 0 0 0.746,0.582 l 6.508,-1.628 a 0.6,0.6 0 0 1 0.746,0.582 v 2.96 a 0.6,0.6 0 0 1 -0.205,0.451 l -2.16,1.89 c -0.458,0.402 -0.097,1.151 0.502,1.042 l 3.256,-0.591 a 0.6,0.6 0 0 1 0.214,0 l 3.256,0.591 c 0.599,0.11 0.96,-0.64 0.502,-1.041 l -2.16,-1.89 A 0.6,0.6 0 0 1 13.5,18.228 v -2.96 a 0.6,0.6 0 0 1 0.745,-0.582 l 6.51,1.628 A 0.6,0.6 0 0 0 21.5,15.732 v -0.9 A 0.6,0.6 0 0 0 21.218,14.324 L 13.782,9.676 A 0.6,0.6 0 0 1 13.5,9.167 V 4.5 a 1.5,1.5 0 0 0 -3,0 z"
         stroke="#000000"
         stroke-width="1"
         stroke-linecap="round"
         stroke-linejoin="round"
         id="path2154"
         style="stroke:#ffffff;stroke-opacity:1" />
    </g>
  </g>
</svg>
